 <svg width="29" height="29" viewBox="0 0 29 29" fill="none" xmlns="http://www.w3.org/2000/svg">
<g clip-path="url(#clip0_0_342)">
<path d="M10.8677 26.5657C11.5346 26.5657 12.0752 26.0251 12.0752 25.3582C12.0752 24.6913 11.5346 24.1506 10.8677 24.1506C10.2008 24.1506 9.66016 24.6913 9.66016 25.3582C9.66016 26.0251 10.2008 26.5657 10.8677 26.5657Z" stroke="black" stroke-width="1.97596" stroke-linecap="round" stroke-linejoin="round"/>
<path d="M24.1509 26.5657C24.8178 26.5657 25.3584 26.0251 25.3584 25.3582C25.3584 24.6913 24.8178 24.1506 24.1509 24.1506C23.484 24.1506 22.9434 24.6913 22.9434 25.3582C22.9434 26.0251 23.484 26.5657 24.1509 26.5657Z" stroke="black" stroke-width="1.97596" stroke-linecap="round" stroke-linejoin="round"/>
<path d="M1.20801 1.20752H6.03814L9.27432 17.3764C9.38474 17.9323 9.68719 18.4317 10.1287 18.7871C10.5702 19.1426 11.1227 19.3314 11.6894 19.3205H23.4266C23.9933 19.3314 24.5458 19.1426 24.9873 18.7871C25.4288 18.4317 25.7312 17.9323 25.8417 17.3764L27.7737 7.24518H7.24567" stroke="black" stroke-width="1.97596" stroke-linecap="round" stroke-linejoin="round"/>
</g>
<defs>
<clipPath id="clip0_0_342">
<rect width="28.9808" height="28.9808" fill="white"/>
</clipPath>
</defs>
</svg>